<svg xmlns="http://www.w3.org/2000/svg" width="24" height="24" viewBox="0 0 24 24">
  <g id="icon_cart" transform="translate(0 0.01)">
    <g id="Layer_1" data-name="Layer 1" transform="translate(0 -0.01)">
      <path id="Path_1" data-name="Path 1" d="M18.573,41.06a2,2,0,1,1-1.993,1.993,2,2,0,0,1,1.993-1.993Z" transform="translate(-9.612 -21.055)" fill="#ff7158"/>
      <path id="Path_2" data-name="Path 2" d="M39.247,41.06a1.993,1.993,0,1,1-1.412.582A2,2,0,0,1,39.247,41.06Z" transform="translate(-21.595 -21.055)" fill="#ff7158"/>
      <path id="Path_3" data-name="Path 3" d="M22.742,7.366H10.436a1.125,1.125,0,0,0-.727,1.126,1.283,1.283,0,0,0,.727,1.2H21.469l-.618,2.449H10a1.037,1.037,0,0,0-.677,1.043A1.2,1.2,0,0,0,10,14.316H20.3L19.72,16.6H8.519L7.78,9.7,7.536,7.366S7.322,5.221,7.2,4.329,5.161,2.321,1.051.064c-.967-.49-1.778,1.592,0,2.669L4.3,4.5a1.977,1.977,0,0,1,.815,1.2c.063.681,1.383,12.058,1.383,12.058s.055,1.582,1.286,1.582H20.174a1.4,1.4,0,0,0,1.24-1.259l2.45-8.488S24.575,7.366,22.742,7.366Z" transform="translate(0 0.01)" fill="#ff7158"/>
    </g>
  </g>
</svg>
