<svg xmlns="http://www.w3.org/2000/svg" width="24" height="24" viewBox="0 0 24 24">
  <g id="icon_cart_filled" transform="translate(0 0.01)">
    <g id="Layer_1" data-name="Layer 1" transform="translate(0 -0.01)">
      <path id="Path_4" data-name="Path 4" d="M18.481,41.06a1.905,1.905,0,1,1-1.9,1.9,1.905,1.905,0,0,1,1.9-1.9Z" transform="translate(-9.548 -20.87)" fill="#2d2d2d"/>
      <path id="Path_5" data-name="Path 5" d="M39.155,41.06a1.9,1.9,0,1,1-1.347.555A1.905,1.905,0,0,1,39.155,41.06Z" transform="translate(-21.451 -20.87)" fill="#2d2d2d"/>
      <path id="Path_6" data-name="Path 6" d="M22.742,7.448H10.436a1.138,1.138,0,0,0-.727,1.139,1.3,1.3,0,0,0,.727,1.218H21.469l-.618,2.476H10a1.049,1.049,0,0,0-.677,1.055A1.216,1.216,0,0,0,10,14.475H20.3l-.58,2.308H8.519L7.78,9.805,7.536,7.448S7.322,5.279,7.2,4.378,5.161,2.347,1.051.064c-.967-.5-1.778,1.609,0,2.7L4.3,4.546a2,2,0,0,1,.815,1.208c.063.688,1.383,12.192,1.383,12.192s.055,1.6,1.286,1.6H20.174a1.408,1.408,0,0,0,1.24-1.273l2.45-8.582S24.575,7.448,22.742,7.448Z" transform="translate(0 0.01)" fill="#2d2d2d"/>
    </g>
  </g>
</svg>
