<svg id="profile" xmlns="http://www.w3.org/2000/svg" width="12.992" height="15.157" viewBox="0 0 12.992 15.157">
  <g id="OBJECTS" transform="translate(0)">
    <path id="Path_10" data-name="Path 10" d="M8.853,7.481a5.489,5.489,0,0,1-4.733,0A5.743,5.743,0,0,0,0,12.766v.244a10.491,10.491,0,0,0,6.477,2.147,10.576,10.576,0,0,0,6.514-2.147v-.244A5.747,5.747,0,0,0,8.853,7.481ZM6.477,0A4.031,4.031,0,0,0,2.209,3.74a4.031,4.031,0,0,0,4.269,3.74,4.031,4.031,0,0,0,4.269-3.74A4.031,4.031,0,0,0,6.477,0Z" transform="translate(0 0)" fill="#342e2e"/>
  </g>
</svg>
