<svg xmlns="http://www.w3.org/2000/svg" width="13.036" height="17.969" viewBox="0 0 13.036 17.969">
  <g id="wish" transform="translate(-40.769)">
    <path id="Path_14" data-name="Path 14" d="M107.2,2.766V2.571a1.375,1.375,0,0,1,2.751,0v.194h1.2V2.571a2.571,2.571,0,0,0-5.143,0v.194Z" transform="translate(-61.285)"/>
    <path id="Path_15" data-name="Path 15" d="M107.307,148.466a1.135,1.135,0,0,0-1.11,1.155.538.538,0,1,1-1.076,0,1.111,1.111,0,1,0-2.221,0c0,.939,1.587,2.353,2.759,3.162,1.172-.81,2.759-2.226,2.759-3.162A1.135,1.135,0,0,0,107.307,148.466Z" transform="translate(-58.372 -139.484)"/>
    <path id="Path_16" data-name="Path 16" d="M41.367,59.054a.6.6,0,0,0-.6.6V71.238a2.215,2.215,0,0,0,2.212,2.213h8.611A2.215,2.215,0,0,0,53.8,71.238V59.652a.6.6,0,0,0-.6-.6ZM47.578,69.88a.538.538,0,0,1-.581,0c-.363-.233-3.545-2.331-3.545-4.262a2.212,2.212,0,0,1,2.187-2.231,2.165,2.165,0,0,1,1.649.767,2.164,2.164,0,0,1,1.648-.767,2.212,2.212,0,0,1,2.187,2.231C51.122,67.549,47.941,69.647,47.578,69.88Z" transform="translate(0 -55.481)"/>
  </g>
</svg>
