<svg height="512" viewBox="0 0 64 64" width="512" xmlns="http://www.w3.org/2000/svg"><g id="admin-human-user--marketing-seo"><circle cx="59" cy="32" fill="#ffde55" r="3"/><path d="m48.88 15.12a3 3 0 1 1 2.12.88 2.993 2.993 0 0 1 -2.12-.88z" fill="#ffde55"/><path d="m49 55v4a2.006 2.006 0 0 1 -2 2h-30a2.006 2.006 0 0 1 -2-2v-4a8 8 0 0 1 8-8h18a8 8 0 0 1 8 8z" fill="#2488ff"/><path d="m49 55v4a2.006 2.006 0 0 1 -2 2h-4a2.006 2.006 0 0 0 2-2v-4a8.011 8.011 0 0 0 -6.2-7.8l.2-.2h2a8 8 0 0 1 8 8z" fill="#005ece"/><path d="m44 15v6a5.985 5.985 0 0 1 -3 5.19v-1.19l-11-3-7 3v2a3 3 0 0 1 -3-3v-3a6 6 0 0 1 6-6z" fill="#ffde55"/><path d="m41 25v8a8.981 8.981 0 0 1 -6 8.48 8.914 8.914 0 0 1 -6 0 8.981 8.981 0 0 1 -6-8.48v-8l7-3z" fill="#ffdaaa"/><path d="m44 15v6a5.985 5.985 0 0 1 -3 5.19v-1.19l-2.09-.57a5.885 5.885 0 0 0 1.09-3.43v-6z" fill="#ebbf00"/><path d="m41 25v8a8.981 8.981 0 0 1 -6 8.48 8.8 8.8 0 0 1 -3 .52 8.236 8.236 0 0 1 -2-.24 5.7 5.7 0 0 0 1-.28 8.981 8.981 0 0 0 6-8.48v-8l-8.56-2.33 1.56-.67z" fill="#ffb655"/><path d="m39 47-7 7-7-7 4-3v-2.52a8.914 8.914 0 0 0 6 0v2.52z" fill="#ffdaaa"/><path d="m35 43.48a8.914 8.914 0 0 1 -6 0v-2a8.914 8.914 0 0 0 6 0z" fill="#ffb655"/><g fill="#ffde55"><circle cx="32" cy="5" r="3"/><path d="m15.12 15.12a3 3 0 1 1 .88-2.12 2.993 2.993 0 0 1 -.88 2.12z"/><circle cx="5" cy="32" r="3"/></g><path d="m41 46h-1.67l-3.33-2.5v-1.34a10.013 10.013 0 0 0 6-9.16v-6.28a6.981 6.981 0 0 0 3-5.72v-6a1 1 0 0 0 -1-1h-18a7.008 7.008 0 0 0 -7 7v3a4 4 0 0 0 3 3.86v5.14a10.013 10.013 0 0 0 6 9.16v1.34l-3.33 2.5h-1.67a9.014 9.014 0 0 0 -9 9v4a3.009 3.009 0 0 0 3 3h30a3.009 3.009 0 0 0 3-3v-4a9.014 9.014 0 0 0 -9-9zm-19-21v.72a2 2 0 0 1 -1-1.72v-3a5 5 0 0 1 5-5h17v5a4.971 4.971 0 0 1 -1.28 3.32.874.874 0 0 0 -.46-.28l-11-3a.965.965 0 0 0 -.65.04l-7 3a1 1 0 0 0 -.61.92zm2 8v-7.34l6.07-2.6 9.93 2.7v7.24a8 8 0 0 1 -16 0zm5.6 11.8a1.014 1.014 0 0 0 .4-.8v-1.2a10.1 10.1 0 0 0 4 0v1.2a1.014 1.014 0 0 0 .4.8l3.08 2.31-5.48 5.48-5.48-5.48zm18.4 14.2a1 1 0 0 1 -1 1h-30a1 1 0 0 1 -1-1v-4a7.008 7.008 0 0 1 7-7h1.59l6.7 6.71a1.008 1.008 0 0 0 1.42 0l6.7-6.71h1.59a7.008 7.008 0 0 1 7 7z"/><path d="m31 8.858v4.142h2v-4.142a4 4 0 1 0 -2 0zm1-5.858a2 2 0 1 1 -2 2 2 2 0 0 1 2-2z"/><path d="m5 28a4 4 0 1 0 3.858 5h4.142v-2h-4.142a4 4 0 0 0 -3.858-3zm0 6a2 2 0 1 1 2-2 2 2 0 0 1 -2 2z"/><path d="m59 28a4 4 0 0 0 -3.858 3h-4.142v2h4.143a3.993 3.993 0 1 0 3.857-5zm0 6a2 2 0 1 1 2-2 2 2 0 0 1 -2 2z"/><path d="m43.856 9.511h2v1.81h-2z" transform="matrix(.388 -.921 .921 .388 17.834 47.704)"/><path d="m37.184 6.698h2v1.81h-2z" transform="matrix(.389 -.921 .921 .389 16.337 39.83)"/><path d="m40.52 8.104h2v1.811h-2z" transform="matrix(.388 -.922 .922 .388 17.097 43.775)"/><path d="m55.491 37.183h1.81v2.001h-1.81z" transform="matrix(.388 -.921 .921 .388 -.698 75.316)"/><path d="m54.085 40.52h1.81v1.999h-1.81z" transform="matrix(.389 -.921 .921 .389 -4.645 76.038)"/><path d="m52.678 43.856h1.811v2.001h-1.811z" transform="matrix(.388 -.922 .922 .388 -8.552 76.832)"/><path d="m6.698 24.816h1.811v2.001h-1.811z" transform="matrix(.388 -.922 .922 .388 -19.14 22.805)"/><path d="m8.105 21.48h1.81v1.999h-1.81z" transform="matrix(.389 -.921 .921 .389 -15.204 22.04)"/><path d="m9.512 18.143h1.81v2.001h-1.81z" transform="matrix(.388 -.921 .921 .388 -11.27 21.305)"/><path d="m8.011 40.615h1.999v1.81h-1.999z" transform="matrix(.921 -.389 .389 .921 -15.436 6.771)"/><path d="m6.603 37.279h2.001v1.811h-2.001z" transform="matrix(.922 -.388 .388 .922 -14.222 5.943)"/><path d="m9.417 43.951h2.001v1.81h-2.001z" transform="matrix(.921 -.388 .388 .921 -16.606 7.569)"/><path d="m52.583 18.239h2.001v1.811h-2.001z" transform="matrix(.922 -.388 .388 .922 -3.229 22.311)"/><path d="m53.99 21.575h1.999v1.81h-1.999z" transform="matrix(.921 -.389 .389 .921 -4.414 23.151)"/><path d="m55.396 24.911h2.001v1.81h-2.001z" transform="matrix(.921 -.388 .388 .921 -5.6 23.937)"/><path d="m24.911 6.604h1.81v2h-1.81z" transform="matrix(.921 -.389 .389 .921 -.926 10.632)"/><path d="m18.238 9.416h1.81v2h-1.81z" transform="matrix(.921 -.389 .389 .921 -2.543 8.259)"/><path d="m21.574 8.01h1.811v2h-1.811z" transform="matrix(.921 -.389 .389 .921 -1.734 9.446)"/><path d="m16.293 17.707 1.414-1.414-1.274-1.274a3.947 3.947 0 0 0 .567-2.019 4 4 0 1 0 -4 4 3.947 3.947 0 0 0 2.019-.567zm-5.293-4.707a2 2 0 1 1 2 2 2 2 0 0 1 -2-2z"/><path d="m47.707 17.707 1.274-1.274a3.947 3.947 0 0 0 2.019.567 4 4 0 1 0 -4-4 3.947 3.947 0 0 0 .567 2.019l-1.274 1.274zm3.293-6.707a2 2 0 1 1 -2 2 2 2 0 0 1 2-2z"/><path d="m18 56h2v2h-2z"/><path d="m22 56h20v2h-20z"/><path d="m44 56h2v2h-2z"/><path d="m35 28h2v2h-2z"/><path d="m27 28h2v2h-2z"/><path d="m35.535 36.878 1.172-1.171-1.414-1.414-1.172 1.171a3.07 3.07 0 0 1 -4.242 0l-1.172-1.171-1.414 1.414 1.172 1.171a5 5 0 0 0 7.07 0z"/></g></svg>