<svg enable-background="new 0 0 256 256" height="512" viewBox="0 0 256 256" width="512" xmlns="http://www.w3.org/2000/svg"><path d="m174.963 218.9c2.26-3.228 1.476-7.677-1.752-9.937l-40.965-29.129c-2.171-1.625-3.336-2.898-3.336-2.898l-5.027 3.394-7.417 5.087c-3.646 2.553-8.717 1.658-11.27-1.987-2.553-3.646-1.659-8.717 1.987-11.27 5.154-3.609 4.45-3.116 10.238-7.169 3.246-2.273 6.819-3.983 10.569-5.116-7.594-2.291-12.394-1.401-18.55-1.656-5.253.124-10.763-1.589-16.132-5.021l-7.61-5.171-30.341 43.331 14.66 10.265c2.921 2.046 5.504 4.536 7.654 7.382 2.688 3.268 4.802 7.391 10.478 11.365l45.469 31.838c3.228 2.26 7.677 1.476 9.937-1.752l.202-.289c2.26-3.228 1.476-7.677-1.752-9.937l6.249 4.376c3.228 2.26 7.677 1.476 9.937-1.752l.202-.289c2.26-3.228 1.476-7.677-1.752-9.937l6.363 4.455c3.228 2.26 7.677 1.476 9.937-1.752l.202-.289c2.26-3.228 1.476-7.677-1.752-9.937l-6.363-4.455c3.226 2.262 7.675 1.478 9.935-1.75z" fill="#f9d0b4"/><path d="m170.303 148.028-7.61 5.171c-5.369 3.431-10.879 5.145-16.132 5.021-6.135.253-11.031-.622-18.572 1.656-1.845.558-3.646 1.258-5.388 2.094-.032.016-.066.028-.098.044-1.553.75-3.401 1.801-5.083 2.978-5.788 4.053-5.084 3.56-10.238 7.169-3.646 2.553-4.54 7.624-1.987 11.27s7.624 4.54 11.27 1.987l7.417-5.087 5.027-3.394s1.165 1.273 3.336 2.898l40.965 29.129c1.24.868 2.111 2.062 2.596 3.383l2.523-3.34c2.15-2.846 4.733-5.337 7.654-7.382l14.66-10.265z" fill="#f2ba94"/><path d="m169.268 142.645 8.469-5.93 36.054 51.49-8.469 5.93c-1.013.709-2.409.463-3.119-.55l-33.485-47.821c-.71-1.013-.463-2.409.55-3.119z" fill="#dae6f1"/><path d="m86.732 142.645-8.469-5.93-36.054 51.49 8.469 5.93c1.013.709 2.409.463 3.119-.55l33.485-47.821c.709-1.013.463-2.409-.55-3.119z" fill="#dae6f1"/><path d="m241.607 171.756-38.284-54.652c-.946-1.35-2.806-1.678-4.156-.732l-21.494 15.05c-1.35.945-1.678 2.806-.733 4.157l38.273 54.66c.945 1.35 2.806 1.678 4.157.733l21.504-15.057c1.351-.947 1.679-2.808.733-4.159z" fill="#3caadc"/><path d="m56.833 116.371c-1.35-.945-3.211-.617-4.156.732l-38.284 54.652c-.946 1.35-.618 3.212.733 4.157l21.504 15.057c1.35.945 3.211.617 4.157-.733l38.273-54.66c.945-1.35.617-3.211-.733-4.157z" fill="#3a70bf"/><path d="m93.75 102.295 1.911 1.772c30.268 28.069 79.448 6.841 79.876-34.315h-6.864c-1.47 0-2.268-1.769-1.318-2.923l11.24-13.653c-2.102-6.726-5.511-12.872-9.925-18.151l-1.745 1.8c-1.075 1.11-2.847 1.137-3.956.062l-1.872-1.814c-30.263-29.331-81.067-7.485-80.632 34.679h6.861c1.47 0 2.268 1.769 1.318 2.923l-10.879 13.216c2.278 6.778 5.885 12.943 10.518 18.185l1.513-1.632c1.051-1.133 2.821-1.2 3.954-.149z" fill="#f5c84c"/><path d="m193.489 66.828-11.749-14.271c-.683-.83-1.953-.83-2.636 0l-11.749 14.271c-.95 1.154-.152 2.923 1.318 2.923h6.864c-.428 41.156-49.608 62.384-79.876 34.315l-1.911-1.772c-1.133-1.051-2.903-.984-3.954.149l-3.544 3.822c-1.051 1.133-.984 2.903.149 3.954l1.911 1.772c36.901 34.221 97.611 8.683 98.034-42.24h5.826c1.469.001 2.267-1.768 1.317-2.923z" fill="#fc657e"/><path d="m87.326 69.752h-6.861c-.436-42.164 50.369-64.01 80.632-34.679l1.872 1.814c1.11 1.075 2.881 1.048 3.956-.062l3.628-3.743c1.075-1.11 1.048-2.881-.062-3.956l-1.872-1.814c-17.277-16.745-43.522-21.159-65.31-10.988-20.667 9.649-33.838 30.8-33.652 53.428h-5.829c-1.47 0-2.268 1.769-1.318 2.923l11.75 14.271c.683.83 1.953.83 2.636 0l11.749-14.271c.949-1.154.152-2.923-1.319-2.923z" fill="#70d6f9"/><path d="m186.673 4.874h-2.07v-2.07c0-1.549-1.256-2.805-2.805-2.805s-2.805 1.256-2.805 2.805v2.07h-2.069c-1.549 0-2.805 1.256-2.805 2.805s1.256 2.805 2.805 2.805h2.069v2.07c0 1.549 1.256 2.805 2.805 2.805s2.805-1.256 2.805-2.805v-2.07h2.07c1.549 0 2.805-1.256 2.805-2.805s-1.256-2.805-2.805-2.805z" fill="#3caadc"/><path d="m199.646 25.819c-1.335.252-2.255 1.45-2.255 2.749 0 1.482 1.185 2.805 2.805 2.805 1.579 0 2.805-1.297 2.805-2.805-.001-1.695-1.533-3.089-3.355-2.749z" fill="#ef4460"/><path d="m203.745 96.819c-1.854-.335-3.355 1.052-3.355 2.749 0 1.549 1.249 2.805 2.805 2.805 1.533 0 2.805-1.251 2.805-2.805 0-1.352-.978-2.508-2.255-2.749z" fill="#f5c84c"/><path d="m52.745 86.819c-1.851-.334-3.355 1.05-3.355 2.749 0 1.529 1.233 2.805 2.805 2.805 1.59 0 2.805-1.305 2.805-2.805 0-1.349-.977-2.508-2.255-2.749z" fill="#87d147"/><path d="m39.309 107.89c-3.995-.744-7.144-3.829-7.904-7.743-.038-.197-.313-.197-.351 0-.76 3.914-3.908 6.999-7.904 7.743-.201.037-.201.306 0 .344 3.995.744 7.144 3.829 7.904 7.743.038.197.313.197.351 0 .76-3.914 3.908-6.999 7.904-7.743.2-.038.2-.306 0-.344z" fill="#f5c84c"/><path d="m204.044 197.039c-1.495 0-2.968-.704-3.889-2.019l-33.485-47.822c-.726-1.037-1.005-2.295-.785-3.542s.912-2.333 1.95-3.06l8.469-5.93c.543-.38 1.216-.529 1.868-.414.653.115 1.233.485 1.614 1.028l36.053 51.49c.792 1.131.517 2.69-.614 3.482l-8.469 5.93c-.826.579-1.774.857-2.712.857zm-33.129-52.495 33.186 47.394 6.208-4.347-33.185-47.395zm-.212.148c-.002.001-.002.002 0 0zm-1.435-2.046h.01z"/><path d="m217.67 194.012c-.32 0-.642-.028-.964-.084-1.443-.254-2.7-1.056-3.541-2.255l-38.273-54.66c-1.734-2.478-1.13-5.904 1.347-7.639l21.494-15.05c2.477-1.734 5.904-1.13 7.638 1.346l38.284 54.653c.84 1.2 1.163 2.655.909 4.098s-1.055 2.701-2.255 3.541l-21.504 15.057c-.933.652-2.019.993-3.135.993zm-16.792-75.68c-.096 0-.193.028-.277.087l-21.494 15.05c-.219.153-.272.456-.119.675l38.272 54.659c.095.136.223.184.313.199.091.015.227.015.362-.08l21.504-15.057c.136-.095.184-.223.199-.313.016-.09.015-.226-.08-.362l-38.283-54.652c-.093-.134-.244-.206-.397-.206z"/><path d="m51.956 197.039c-.938 0-1.886-.277-2.711-.855l-8.469-5.93c-1.131-.792-1.406-2.351-.614-3.482l36.053-51.49c.38-.543.961-.913 1.614-1.028.652-.115 1.325.034 1.868.414l8.469 5.93c1.038.726 1.73 1.812 1.95 3.06.22 1.247-.059 2.504-.785 3.542l-33.486 47.82c-.921 1.314-2.394 2.019-3.889 2.019zm-6.265-9.448 6.208 4.347 33.186-47.394-6.208-4.347zm39.606-42.899s.001.001.002.001c0 .001 0 0-.002-.001z"/><path d="m38.33 194.012c-1.115 0-2.202-.34-3.134-.993l-21.504-15.057c-1.2-.84-2.001-2.098-2.255-3.541s.069-2.898.91-4.099l38.283-54.652c1.735-2.477 5.161-3.08 7.638-1.346l21.494 15.05c2.477 1.734 3.081 5.161 1.347 7.638l-38.273 54.66c-.84 1.2-2.098 2.001-3.541 2.255-.323.057-.646.085-.965.085zm16.792-75.68c-.153 0-.304.072-.398.207l-38.283 54.651c-.096.136-.097.272-.081.362s.063.218.199.313l21.504 15.057c.136.095.272.095.362.08.09-.016.218-.063.313-.199l38.273-54.66c.153-.219.1-.521-.119-.675l-21.494-15.05c-.084-.058-.181-.086-.276-.086z"/><path d="m164.62 222.868c-.496 0-.996-.146-1.432-.452l-27.564-19.301c-1.131-.792-1.406-2.351-.614-3.482s2.352-1.405 3.482-.614l27.564 19.301c1.131.792 1.406 2.351.614 3.482-.487.695-1.263 1.066-2.05 1.066z"/><path d="m156.233 234.846c-.496 0-.996-.146-1.432-.452l-27.564-19.301c-1.131-.792-1.406-2.351-.614-3.482s2.352-1.405 3.482-.614l27.564 19.301c1.131.792 1.406 2.351.614 3.482-.487.695-1.262 1.066-2.05 1.066z"/><path d="m141.597 242.448c-.496 0-.996-.146-1.432-.452l-21.315-14.925c-1.131-.792-1.406-2.351-.614-3.482s2.351-1.405 3.482-.614l21.315 14.925c1.131.792 1.406 2.351.614 3.482-.487.694-1.263 1.066-2.05 1.066z"/><path d="m152.469 189.216c-12.103.001-20.503-6.142-23.831-9.08l-3.357 2.266c-1.144.773-2.699.471-3.471-.673-.773-1.145-.471-2.698.673-3.471l5.027-3.394c1.028-.694 2.409-.53 3.245.386.09.098 9.679 10.277 24.746 8.817 1.375-.129 2.597.873 2.729 2.247.133 1.375-.873 2.596-2.247 2.729-1.202.118-2.376.172-3.514.173z"/><path d="m137.695 255.996c-1.908 0-3.834-.564-5.513-1.739l-45.469-31.837c-4.617-3.232-7.112-6.641-9.117-9.38-.638-.871-1.24-1.694-1.858-2.445-.022-.027-.043-.054-.064-.082-1.995-2.641-4.382-4.942-7.093-6.841l-14.66-10.265c-1.131-.792-1.406-2.351-.614-3.482l30.341-43.332c.784-1.12 2.323-1.4 3.453-.634l7.61 5.171c4.853 3.1 9.94 4.7 14.668 4.589.054-.001.108-.001.163.001 1.571.065 3.092.052 4.566.041 4.255-.038 8.659-.073 14.603 1.72 1.055.318 1.777 1.291 1.778 2.393 0 1.102-.722 2.075-1.777 2.394-3.555 1.074-6.872 2.68-9.858 4.771l-10.238 7.168c-1.216.852-2.03 2.134-2.29 3.611-.261 1.477.065 2.96.917 4.176 1.769 2.525 5.262 3.144 7.788 1.374l12.48-8.505c1.027-.694 2.406-.53 3.243.384.006.006 1.064 1.143 2.99 2.585l40.916 29.092c4.337 3.037 5.398 9.056 2.352 13.408-.968 1.383-2.237 2.433-3.656 3.125 3.902 3.151 4.753 8.85 1.834 13.019l-.201.288c-2.92 4.17-8.567 5.319-12.862 2.73-.165 1.571-.718 3.123-1.687 4.505l-.203.289c-1.476 2.107-3.685 3.515-6.219 3.961-2.27.4-4.559-.013-6.527-1.165-.164 1.575-.717 3.13-1.688 4.516l-.204.29c-1.87 2.675-4.864 4.106-7.904 4.106zm-58.062-48.538c.694.847 1.328 1.713 1.999 2.628 1.972 2.694 4.011 5.479 7.95 8.237l45.469 31.837c2.094 1.467 4.988.955 6.455-1.138l.204-.29c1.464-2.091.955-4.985-1.136-6.451l-.003-.002c-1.131-.792-1.406-2.351-.614-3.482s2.351-1.406 3.482-.614l6.249 4.375c1.015.71 2.244.983 3.463.768s2.282-.892 2.992-1.906l.203-.289c1.465-2.093.955-4.989-1.139-6.455-1.131-.792-1.406-2.351-.614-3.482s2.352-1.405 3.482-.614c.003.002.006.005.01.007l6.353 4.448c1.015.71 2.244.984 3.463.768 1.219-.215 2.282-.892 2.992-1.906l.201-.288c1.467-2.095.956-4.99-1.137-6.456l-6.363-4.455c-1.131-.792-1.406-2.351-.614-3.482s2.351-1.406 3.482-.614c2.093 1.466 4.989.955 6.455-1.138 1.465-2.094.955-4.99-1.139-6.456l-40.979-29.139c-.862-.645-1.582-1.241-2.152-1.741l-3.364 2.271-7.402 5.077c-4.764 3.335-11.381 2.169-14.731-2.615-1.618-2.31-2.237-5.121-1.745-7.913.493-2.792 2.036-5.221 4.346-6.839l10.238-7.168c1.081-.757 2.199-1.458 3.35-2.102-1.771-.109-3.457-.096-5.187-.081-1.51.013-3.07.026-4.735-.041-5.67.125-11.729-1.756-17.455-5.415l-5.629-3.824-27.493 39.265 12.612 8.831c3.124 2.191 5.877 4.843 8.181 7.884zm95.33 11.442h.01z"/><path d="m175.807 214.846c-.122 0-.245-.009-.368-.027-.905-.134-1.664-.752-1.979-1.611-.329-.896-.911-1.656-1.683-2.197l-40.979-29.139c-.862-.645-1.582-1.241-2.152-1.741l-3.364 2.271-7.402 5.077c-2.29 1.604-5.101 2.225-7.893 1.731-2.792-.492-5.221-2.036-6.839-4.346s-2.237-5.121-1.745-7.913c.493-2.792 2.036-5.221 4.346-6.839l10.238-7.168c1.656-1.161 3.584-2.291 5.428-3.182.034-.016.116-.053.15-.068 1.811-.869 3.744-1.621 5.701-2.212 5.915-1.788 10.359-1.753 14.647-1.72 1.469.011 2.988.023 4.544-.041.055-.002.109-.002.162-.001 4.73.123 9.814-1.489 14.727-4.627l7.551-5.132c1.131-.768 2.669-.486 3.453.634l30.341 43.332c.792 1.131.517 2.69-.614 3.482l-14.66 10.265c-2.711 1.898-5.097 4.2-7.093 6.841l-2.523 3.339c-.476.63-1.218.992-1.994.992zm-46.898-40.41c.681 0 1.356.278 1.845.812.006.006 1.064 1.143 2.99 2.585l40.916 29.092c.463.325.894.688 1.29 1.085l.386-.512c2.312-3.059 5.075-5.725 8.214-7.922l12.612-8.831-27.493-39.265-5.571 3.786c-5.785 3.697-11.795 5.567-17.515 5.454-1.649.066-3.204.053-4.709.042-4.1-.033-7.974-.062-13.163 1.506-1.712.518-3.405 1.175-5.03 1.955-.031.015-.111.051-.143.065-1.535.743-3.261 1.754-4.684 2.751l-10.238 7.169c-1.216.852-2.03 2.134-2.29 3.611-.261 1.477.065 2.96.917 4.176s2.134 2.03 3.611 2.29c1.479.262 2.961-.064 4.176-.917l12.48-8.505c.427-.287.915-.427 1.399-.427z"/><path d="m132.245 87.041h-13.578c-1.381 0-2.5-1.119-2.5-2.5s1.119-2.5 2.5-2.5h13.578c2.848 0 5.165-2.317 5.165-5.165s-2.317-5.165-5.165-5.165h-8.489c-5.605 0-10.165-4.56-10.165-10.165s4.56-10.165 10.165-10.165h12.032c1.381 0 2.5 1.119 2.5 2.5s-1.119 2.5-2.5 2.5h-12.032c-2.848 0-5.165 2.317-5.165 5.165s2.317 5.165 5.165 5.165h8.489c5.605 0 10.165 4.56 10.165 10.165s-4.56 10.165-10.165 10.165z"/><path d="m128 92.285c-1.381 0-2.5-1.119-2.5-2.5v-41.147c0-1.381 1.119-2.5 2.5-2.5s2.5 1.119 2.5 2.5v41.147c0 1.381-1.119 2.5-2.5 2.5z"/><path d="m127.69 130.141c-14.939 0-29.511-5.588-41.079-16.316l-1.911-1.772c-1.038-.962-1.638-2.271-1.691-3.686-.053-1.414.447-2.764 1.41-3.802l3.544-3.822c1.987-2.142 5.345-2.269 7.487-.282l1.911 1.772c13.257 12.294 31.815 15.491 48.436 8.34 15.835-6.813 26.059-21.349 27.146-38.322h-4.27c-1.645 0-3.106-.932-3.814-2.432-.72-1.526-.504-3.281.565-4.58l11.749-14.271c.803-.975 1.986-1.533 3.249-1.533 1.262 0 2.446.559 3.248 1.533l11.749 14.272c1.069 1.299 1.286 3.053.566 4.58-.708 1.5-2.169 2.433-3.814 2.433h-3.395c-1.098 23.353-14.933 43.418-36.565 52.753-7.993 3.448-16.313 5.135-24.521 5.135zm-35.841-26.093c-.004 0-.008 0-.013 0-.082.003-.152.035-.208.095l-3.544 3.822c-.056.061-.083.132-.08.214s.035.151.095.207l1.911 1.772c16.45 15.255 39.524 19.185 60.219 10.255 20.549-8.867 33.429-28.288 33.615-50.683.012-1.373 1.127-2.479 2.5-2.479h4.254l-10.176-12.361-10.177 12.362h5.292c.667 0 1.307.267 1.777.742.47.474.73 1.117.723 1.784-.209 20.055-11.805 37.447-30.264 45.389-18.462 7.943-39.082 4.394-53.812-9.267l-1.912-1.772c-.056-.053-.123-.08-.2-.08zm99.71-35.63h.01z"/><path d="m75.578 90.068c-1.262 0-2.446-.559-3.248-1.533l-11.749-14.271c-1.069-1.299-1.286-3.054-.566-4.58.708-1.5 2.17-2.432 3.814-2.432h3.36c.758-22.814 14.31-43.505 35.062-53.193 22.723-10.608 50.092-6.003 68.107 11.458l1.872 1.814c2.098 2.032 2.151 5.393.118 7.491l-3.629 3.744c-.984 1.016-2.306 1.587-3.721 1.61-1.399-.005-2.754-.508-3.77-1.494l-1.871-1.813c-13.256-12.848-32.062-16.287-49.081-8.979-16.273 6.99-26.551 21.926-27.273 39.362h4.323c1.644 0 3.105.932 3.814 2.432.72 1.526.504 3.281-.565 4.58l-11.749 14.271c-.802.975-1.986 1.533-3.248 1.533zm-10.177-17.816 10.177 12.362 10.177-12.362h-5.29c-1.371 0-2.486-1.104-2.5-2.474-.212-20.542 11.413-38.354 30.338-46.482 18.908-8.12 39.803-4.295 54.534 9.982l1.872 1.814c.06.057.125.094.212.084.082-.001.152-.032.209-.09l3.629-3.744c.114-.118.111-.307-.007-.421l-1.872-1.814c-16.537-16.028-41.658-20.254-62.513-10.518-19.746 9.219-32.389 29.293-32.209 51.143.005.667-.255 1.308-.725 1.781-.469.474-1.108.74-1.775.74h-4.257zm21.925 0h.01z"/></svg>