<?xml version="1.0"?>
<svg xmlns="http://www.w3.org/2000/svg" viewBox="0 0 512 512" width="512" height="512"><g id="User_Setting" data-name="User Setting"><g id="Filled"><path d="M240,408h0a71.991,71.991,0,0,0,71.927-69.1l-2.789-.507A16,16,0,0,1,296,322.647V272H184v50.647a16,16,0,0,1-13.138,15.742l-2.789.507A71.991,71.991,0,0,0,240,408Z" style="fill:#fac7b7"/><path d="M412.88,357.251,311.927,338.9A71.991,71.991,0,0,1,240,408h0a71.991,71.991,0,0,1-71.927-69.1L67.12,357.251A72,72,0,0,0,8,428.089V512H472V428.089A72,72,0,0,0,412.88,357.251Z" style="fill:#e56161"/><path d="M412.88,357.251l-14.845-2.7C335.474,440.281,234.254,496,120,496A343.421,343.421,0,0,1,8,477.327V512H472V428.089A72,72,0,0,0,412.88,357.251Z" style="fill:#d65858"/><path d="M168,104l28.031,18.687a79.265,79.265,0,0,0,87.938,0L312,104s34.581,5.769,45.036,31.978C363.251,68.251,309.89,8,240,8h0C170.11,8,116.749,68.251,122.964,135.978,133.419,109.769,168,104,168,104Z" style="fill:#525252"/><path d="M351.226,168l3.878-18.929a119.819,119.819,0,0,0,1.932-13.093C346.581,109.769,312,104,312,104l-28.031,18.687a79.265,79.265,0,0,1-87.938,0L168,104s-34.581,5.769-45.036,31.978a119.819,119.819,0,0,0,1.932,13.093L128.774,168a19.342,19.342,0,0,0-18.765,24.034l4.56,18.24A28.682,28.682,0,0,0,142.394,232,102.175,102.175,0,0,0,240,304h0a102.175,102.175,0,0,0,97.606-72,28.682,28.682,0,0,0,27.825-21.726l4.56-18.24A19.342,19.342,0,0,0,351.226,168Z" style="fill:#ffe7de"/><circle cx="196" cy="56" r="16" style="fill:#848484"/><circle cx="236" cy="72" r="12" style="fill:#848484"/><circle cx="84" cy="396" r="16" style="fill:#f29c9c"/><circle cx="124" cy="412" r="12" style="fill:#f29c9c"/><circle cx="176" cy="164" r="16" style="fill:#fff5f2"/><circle cx="216" cy="180" r="12" style="fill:#fff5f2"/><path d="M178.151,283.124A101.909,101.909,0,0,0,240,304h0a102.175,102.175,0,0,0,97.606-72,28.682,28.682,0,0,0,27.825-21.726l4.56-18.24A19.342,19.342,0,0,0,351.226,168l1.639-8H352c0-14.365-2.872-25.857-7.461-35.062A220.3,220.3,0,0,1,178.151,283.124Z" style="fill:#f9d8cd"/><path d="M304.892,27.5a136.124,136.124,0,0,1-114.1,91.693l5.237,3.491a79.265,79.265,0,0,0,87.938,0L312,104s34.581,5.769,45.036,31.978A117.537,117.537,0,0,0,304.892,27.5Z" style="fill:#3f3f3f"/><path d="M282,379.636l28.536-9.2,8.189-19.764L305.032,323.93l18.9-18.9,26.742,13.693,19.764-8.19,9.2-28.535h26.728l9.2,28.536,19.764,8.189,26.742-13.693,18.9,18.9-13.693,26.742,8.19,19.764,28.535,9.2v26.728l-28.536,9.2-8.189,19.764,13.693,26.742-18.9,18.9-26.742-13.693-19.764,8.19L406.364,504H379.636l-9.2-28.536-19.764-8.189L323.93,480.968l-18.9-18.9,13.693-26.742-8.19-19.764L282,406.364Z" style="fill:#ffd740"/><circle cx="392" cy="392" r="40" style="fill:#f2b200"/></g><g id="Outline"><path d="M192,322.646V300.977A110.162,110.162,0,0,0,343.52,239.52a36.628,36.628,0,0,0,29.669-27.31l4.561-18.24a27.569,27.569,0,0,0,.83-6.67,27.4,27.4,0,0,0-17.891-25.62l2.25-11a127.94,127.94,0,0,0,2.036-13.764c0-.015,0-.031,0-.046.361-3.88.551-7.764.551-11.63a123.75,123.75,0,0,0-9.671-48.08A125.82,125.82,0,0,0,329.27,37.29,124.795,124.795,0,0,0,240,0h-.02a124.741,124.741,0,0,0-47.32,9.2,8,8,0,0,0,6.04,14.82A109.659,109.659,0,0,1,348.739,112.1c-15.311-12.469-34.3-15.806-35.425-15.994l-3.12-.519-30.662,20.445a71.284,71.284,0,0,1-79.064,0L169.806,95.589l-3.12.519c-1.124.188-20.124,3.527-35.438,16A108.566,108.566,0,0,1,152.16,60.12a8.007,8.007,0,0,0-1.64-11.19,7.978,7.978,0,0,0-11.19,1.639A125.6,125.6,0,0,0,121.02,85.43a123.655,123.655,0,0,0-6.55,39.81q0,5.739.539,11.5c0,.03,0,.059.008.089a127.731,127.731,0,0,0,2.043,13.848l2.25,11a27.279,27.279,0,0,0-17.06,32.29l4.56,18.24a36.629,36.629,0,0,0,29.68,27.31A109.988,109.988,0,0,0,176,291.488v31.158a8,8,0,0,1-6.569,7.872L65.689,349.38A79.962,79.962,0,0,0,0,428.09V504a8,8,0,0,0,16,0V428.09a63.97,63.97,0,0,1,52.551-62.968l92.417-16.8A79.976,79.976,0,0,0,240,416a8,8,0,0,0,0-16,64,64,0,0,1-63.357-54.97A23.985,23.985,0,0,0,192,322.646ZM150.04,229.64l-1.73-5.61-5.92-.03a20.637,20.637,0,0,1-20.06-15.67l-4.56-18.24a11.535,11.535,0,0,1-.35-2.79A11.352,11.352,0,0,1,128.77,176h9.81l-5.85-28.53q-1.037-5.085-1.6-10.223c7.649-16.344,27.714-22.805,35.26-24.7l25.2,16.8a87.286,87.286,0,0,0,96.816,0l25.2-16.8c7.56,1.9,27.606,8.365,35.257,24.693-.375,3.423-.9,6.841-1.593,10.233l-5.84,28.469-.01.061h9.809a11.237,11.237,0,0,1,8.071,3.37,11.253,11.253,0,0,1,2.929,10.73l-4.559,18.23A20.64,20.64,0,0,1,337.6,224h-5.86l-1.78,5.64A93.662,93.662,0,0,1,240.02,296h-.04A93.652,93.652,0,0,1,150.04,229.64Z"/><path d="M72,440a8,8,0,0,0-8,8v56a8,8,0,0,0,16,0V448A8,8,0,0,0,72,440Z"/><path d="M168.07,40.56a8,8,0,1,0-6.32-3.09A7.931,7.931,0,0,0,168.07,40.56Z"/><path d="M512,412.19V373.81l-30.561-9.854-5.357-12.93,14.661-28.634-27.135-27.135-28.634,14.662-12.93-5.358L412.19,274H373.81l-9.854,30.561-12.93,5.357-28.634-14.661-27.135,27.135,14.662,28.634-5.358,12.93L274,373.81v38.38l30.561,9.854,5.357,12.93-14.661,28.634,27.135,27.135,28.634-14.662,12.93,5.358L373.81,512h38.38l9.854-30.561,12.93-5.357,28.634,14.661,27.135-27.135-14.662-28.634,5.358-12.93Zm-40.808,48.342-10.66,10.66L435.683,458.47l-26.6,11.02L400.538,496H385.462l-8.547-26.51-26.6-11.022-24.849,12.724-10.66-10.66,12.722-24.849-11.02-26.6L290,400.538V385.462l26.51-8.547,11.022-26.6-12.724-24.849,10.66-10.66,24.849,12.722,26.6-11.02L385.462,290h15.076l8.547,26.51,26.6,11.022,24.849-12.724,10.66,10.66L458.47,350.317l11.02,26.6L496,385.462v15.076l-26.51,8.547-11.022,26.6Z"/><path d="M410.06,347.52a7.811,7.811,0,0,0-3.01-.6,8,8,0,0,0-3.24,15.32h-.01l.24.1a31.988,31.988,0,1,1-42.03,18.47,8.013,8.013,0,0,0-7.5-10.8,8.036,8.036,0,0,0-7.49,5.21,48,48,0,1,0,63.04-27.7Z"/><path d="M375.91,363.37a7.893,7.893,0,0,0,3.2-.67l.021-.011a8,8,0,1,0-6.45-14.639l-.22.09h.01a8,8,0,0,0,3.44,15.23Z"/></g></g></svg>
